<?xml version="1.0" standalone="no"?><!DOCTYPE svg PUBLIC "-//W3C//DTD SVG 1.1//EN" "http://www.w3.org/Graphics/SVG/1.1/DTD/svg11.dtd"><svg t="1568966708285" class="icon" viewBox="0 0 1024 1024" version="1.1" xmlns="http://www.w3.org/2000/svg" p-id="9376" width="32" height="32" xmlns:xlink="http://www.w3.org/1999/xlink"><defs><style type="text/css"></style></defs><path d="M783.8 573.7h-15.9V169.3c0-22.6-18.4-41-41-41h-35.7c-22.6 0-41 18.4-41 41V212h-50.4v-42.7c0-22.6-18.4-41-41-41h-93.4c-22.6 0-41 18.4-41 41V212H374v-42.7c0-22.6-18.4-41-41-41h-35.7c-22.6 0-41 18.4-41 41v404.4h-15.9c-22.6 0-41 18.4-41 41v169.4c0 22.6 18.4 41 41 41h15.9v47.7h443.6v-34H290.3V641.7h-34v149.4h-15.9c-3.9 0-7-3.1-7-7V614.7c0-3.9 3.1-7 7-7H290.3V397.5c19.4 18.2 45.4 29.4 74 29.4h295.6c28.6 0 54.7-11.2 74-29.4V872.9h34v-47.7h15.9c22.6 0 41-18.4 41-41V614.7c0-22.7-18.4-41-41-41zM458.4 169.3c0-3.9 3.1-7 7-7h93.4c3.9 0 7 3.1 7 7V212H458.4v-42.7z m201.5 223.6H364.3c-34.4 0-63.4-23.6-71.6-55.4-1.4-5.4-2.2-11.1-2.3-17V289c0-23.7 19.3-43 43-43H691c23.7 0 43 19.3 43 43v31.5c-0.1 5.9-0.9 11.6-2.3 17-8.5 31.9-37.4 55.4-71.8 55.4z m130.9 391.2c0 3.9-3.1 7-7 7h-15.9V607.7h15.9c3.9 0 7 3.1 7 7v169.4z" fill="" p-id="9377"></path><path d="M415.3 544.6c-42.5 0-77 34.5-77 77v162.8H686V621.6c0-42.5-34.5-77-77-77H415.3z m236.6 205.8H372.3V621.6c0-23.7 19.3-43 43-43H609c23.7 0 43 19.3 43 43v128.8z" fill="" p-id="9378"></path></svg>