<?xml version="1.0" standalone="no"?><!DOCTYPE svg PUBLIC "-//W3C//DTD SVG 1.1//EN" "http://www.w3.org/Graphics/SVG/1.1/DTD/svg11.dtd"><svg t="1568723472040" class="icon" viewBox="0 0 1024 1024" version="1.1" xmlns="http://www.w3.org/2000/svg" p-id="2124" width="16" height="16" xmlns:xlink="http://www.w3.org/1999/xlink"><defs><style type="text/css"></style></defs><path d="M657.4 6.6H369.6c-69.7 0-130 32.1-130 106.4v784.5c0 69.7 55.8 123.7 130 123.7h287.9c74.3 0 129.9-60.4 129.9-134.6V106.7c0-69.6-55.7-100.1-130-100.1z m-135 16.5c4.8 0 8.8 4 8.8 8.8 0 4.8-4 8.8-8.8 8.8-4.9 0-8.8-4-8.8-8.8 0-4.9 4-8.8 8.8-8.8z m-44.8 47.2c0-5.1 4.2-9.3 9.3-9.3h75.7c5.1 0 9.3 4.2 9.3 9.3v0.7c0 5.1-4.2 9.3-9.3 9.3h-75.7c-5.1 0-9.3-4.2-9.3-9.3v-0.7zM449 62.1c4.9 0 8.8 4 8.8 8.8 0 4.9-3.9 8.8-8.8 8.8s-8.8-4-8.8-8.8c0-4.9 4-8.8 8.8-8.8z m64.6 926.1c-24.1 0-43.6-19.6-43.6-43.6 0-24.1 19.6-43.6 43.6-43.6 24.1 0 43.6 19.6 43.6 43.6 0.1 23.9-19.5 43.6-43.6 43.6z m229-129c0 7-5.8 12.8-12.9 12.8H297.5c-7.1 0-12.9-5.8-12.9-12.9v-734c0-7.1 5.8-12.9 12.9-12.9h432.2c7.1 0 12.9 5.8 12.9 12.9v734.1z" fill="#e6e6e6" p-id="2125"></path></svg>